<?xml version="1.0" encoding="utf-8"?>
<!-- Generator: Adobe Illustrator 23.0.6, SVG Export Plug-In . SVG Version: 6.00 Build 0)  -->
<svg version="1.1" id="Ebene_1" xmlns="http://www.w3.org/2000/svg" xmlns:xlink="http://www.w3.org/1999/xlink" x="0px" y="0px"
	 viewBox="0 0 72 72" style="enable-background:new 0 0 72 72;" xml:space="preserve">
<style type="text/css">
	.st0{fill:none;stroke:#384BAD;stroke-width:4;stroke-miterlimit:10;}
</style>
<g>
	<g>
		<g>
			<path class="st0" d="M19.42,37.51l40.32-2.01l6.12-21.43l-51.75-1.28 M2.53,3.75h8.89l9.28,44.21h39.84"/>
		</g>
	</g>
	<g>
		<g>
			<path class="st0" d="M27.76,57.3c-3.28-0.06-5.87,2.53-5.81,5.81c0.05,3.03,2.58,5.55,5.6,5.6c3.28,0.06,5.87-2.53,5.81-5.81
				C33.32,59.88,30.79,57.35,27.76,57.3z"/>
		</g>
	</g>
	<g>
		<g>
			<path class="st0" d="M50.59,57.3c-3.28-0.06-5.87,2.53-5.81,5.81c0.05,3.03,2.58,5.55,5.6,5.6c3.28,0.06,5.87-2.53,5.81-5.81
				C56.15,59.88,53.62,57.35,50.59,57.3z"/>
		</g>
	</g>
</g>
</svg>
